<svg width="104" height="57" viewBox="0 0 104 57" fill="none" xmlns="http://www.w3.org/2000/svg">
<path d="M20.9033 2.84167C21.1958 2.15957 21.6892 1.6821 22.3838 1.40926C23.0783 1.13642 23.9921 1 25.1253 1C26.295 1 27.2271 1.13642 27.9216 1.40926C28.6161 1.6821 29.0913 2.15957 29.3472 2.84167C29.6396 3.52377 29.8041 4.13766 29.8407 4.68334C29.9138 5.18355 29.9503 5.9566 29.9503 7.00248V47.7239C29.9503 48.7697 29.9138 49.5655 29.8407 50.1112C29.8041 50.6114 29.6396 51.1798 29.3472 51.8165C28.7989 53.0442 27.2454 53.6581 24.6866 53.6581C22.1644 53.6581 20.7571 52.544 20.4647 50.3158C18.9295 52.4986 16.7911 53.5899 14.0496 53.5899C10.7598 53.5899 7.76238 51.8165 5.05743 48.2695C2.35248 44.6771 1 40.5163 1 35.7871C1 31.0124 2.35248 26.8289 5.05743 23.2365C7.79894 19.6441 10.7963 17.8479 14.0496 17.8479C16.7545 17.8479 18.8563 18.9847 20.355 21.2584V6.93427C20.355 5.88838 20.3733 5.11534 20.4099 4.61513C20.483 4.06945 20.6475 3.4783 20.9033 2.84167ZM12.0209 39.8797C12.9712 41.1075 14.1227 41.7214 15.4752 41.7214C16.8276 41.7214 17.9425 41.1075 18.8198 39.8797C19.7336 38.6519 20.1905 37.3105 20.1905 35.8553C20.1905 34.3547 19.7519 32.9678 18.8746 31.6945C18.0339 30.4213 16.8825 29.7846 15.4203 29.7846C13.9582 29.7846 12.7885 30.4213 11.9112 31.6945C11.0339 32.9223 10.5953 34.2865 10.5953 35.7871C10.5953 37.2877 11.0705 38.6519 12.0209 39.8797Z" fill="#653D8C"/>
<path d="M47.1481 53.5899C43.4562 53.5899 40.3857 51.8619 37.9367 48.406C35.5241 44.9045 34.3179 40.6528 34.3179 35.6507V23.7139C34.3179 22.6226 34.3361 21.8268 34.3727 21.3266C34.4458 20.8264 34.6103 20.2352 34.8662 19.5531C35.3779 18.3253 36.8035 17.7115 39.1429 17.7115C41.7017 17.7115 43.2004 18.5754 43.639 20.3034C43.8583 21.031 43.968 22.1906 43.968 23.7821V35.7189C43.968 37.5833 44.3883 39.0384 45.2291 40.0843C46.1063 41.1302 47.2578 41.6532 48.6834 41.6532C50.1455 41.6532 51.3152 41.1075 52.1925 40.0161C53.1063 38.9248 53.5632 37.4924 53.5632 35.7189V23.6457C53.5632 22.5998 53.5815 21.8268 53.6181 21.3266C53.6912 20.7809 53.8739 20.167 54.1664 19.4849C54.6416 18.3026 56.0489 17.7115 58.3883 17.7115C60.6912 17.7115 62.0985 18.3253 62.6102 19.5531C62.8661 20.2352 63.0123 20.8491 63.0489 21.3948C63.122 21.895 63.1585 22.668 63.1585 23.7139V47.8603C63.1585 48.8607 63.122 49.6337 63.0489 50.1794C63.0123 50.6796 62.8478 51.248 62.5554 51.8847C62.0071 53.067 60.5998 53.6581 58.3335 53.6581C56.1037 53.6581 54.733 53.1124 54.2212 52.0211C53.8557 51.248 53.6729 50.3158 53.6729 49.2245C53.5267 49.5428 53.1977 49.9975 52.686 50.5887C52.1742 51.1798 51.6807 51.68 51.2056 52.0893C49.9627 53.0897 48.6103 53.5899 47.1481 53.5899Z" fill="#653D8C"/>
<path fill-rule="evenodd" clip-rule="evenodd" d="M79.1462 16.4805C84.292 13.993 96.0657 13.0478 101.994 29.1664C103.64 35.6337 104.464 49.9116 94.5837 55.2845C90.6729 56.777 81.4927 56.9262 76.0587 45.5835C74.6178 41.8523 72.1067 32.7483 73.5887 26.1815C74.0003 23.694 75.6882 18.2714 79.1462 16.4805ZM83.8829 28.5222C88.2423 28.3116 94.9172 30.0929 92.3095 38.9534C88.8214 38.6597 82.2529 36.1623 83.8829 28.5222Z" fill="#DE92A4"/>
<path d="M83.8829 28.5222C88.2423 28.3116 94.9172 30.0929 92.3095 38.9534C88.8214 38.6597 82.2529 36.1623 83.8829 28.5222ZM83.8829 28.5222C83.5817 28.5367 83.2915 28.5608 83.0162 28.5927M92.1137 39.067C93.0521 39.0866 94.0789 39.0239 95.2012 38.8674L92.1137 39.067ZM92.1137 39.067C84.4521 38.9069 82.6826 33.2624 82.9033 28.4202M92.1137 39.067C93.5893 35.2693 93.813 27.8232 82.9033 28.4202M83.4687 24.689C83.1817 25.779 82.9649 27.0683 82.9033 28.4202M83.4667 24.5943C83.4573 24.7077 83.3839 24.8182 83.3507 24.924C83.3419 24.952 83.3256 24.9535 83.3256 24.9865M95.3628 38.8386C95.2843 38.8386 95.2062 38.8587 95.1298 38.8587M20.9033 2.84167C21.1958 2.15957 21.6892 1.6821 22.3838 1.40926C23.0783 1.13642 23.9921 1 25.1253 1C26.295 1 27.2271 1.13642 27.9216 1.40926C28.6161 1.6821 29.0913 2.15957 29.3472 2.84167C29.6396 3.52377 29.8041 4.13766 29.8407 4.68334C29.9138 5.18355 29.9503 5.9566 29.9503 7.00248V47.7239C29.9503 48.7697 29.9138 49.5655 29.8407 50.1112C29.8041 50.6114 29.6396 51.1798 29.3472 51.8165C28.7989 53.0442 27.2454 53.6581 24.6866 53.6581C22.1644 53.6581 20.7571 52.544 20.4647 50.3158C18.9295 52.4986 16.7911 53.5899 14.0496 53.5899C10.7598 53.5899 7.76238 51.8165 5.05743 48.2695C2.35248 44.6771 1 40.5163 1 35.7871C1 31.0124 2.35248 26.8289 5.05743 23.2365C7.79894 19.6441 10.7963 17.8479 14.0496 17.8479C16.7545 17.8479 18.8563 18.9847 20.355 21.2584V6.93427C20.355 5.88838 20.3733 5.11534 20.4099 4.61513C20.483 4.06945 20.6475 3.4783 20.9033 2.84167ZM12.0209 39.8797C12.9712 41.1075 14.1227 41.7214 15.4752 41.7214C16.8276 41.7214 17.9425 41.1075 18.8198 39.8797C19.7336 38.6519 20.1905 37.3105 20.1905 35.8553C20.1905 34.3547 19.7519 32.9678 18.8746 31.6945C18.0339 30.4213 16.8825 29.7846 15.4203 29.7846C13.9582 29.7846 12.7885 30.4213 11.9112 31.6945C11.0339 32.9223 10.5953 34.2865 10.5953 35.7871C10.5953 37.2877 11.0705 38.6519 12.0209 39.8797ZM47.1481 53.5899C43.4562 53.5899 40.3857 51.8619 37.9367 48.406C35.5241 44.9045 34.3179 40.6528 34.3179 35.6507V23.7139C34.3179 22.6226 34.3361 21.8268 34.3727 21.3266C34.4458 20.8264 34.6103 20.2352 34.8662 19.5531C35.3779 18.3253 36.8035 17.7115 39.1429 17.7115C41.7017 17.7115 43.2004 18.5754 43.639 20.3034C43.8583 21.031 43.968 22.1906 43.968 23.7821V35.7189C43.968 37.5833 44.3883 39.0384 45.2291 40.0843C46.1063 41.1302 47.2578 41.6532 48.6834 41.6532C50.1455 41.6532 51.3152 41.1075 52.1925 40.0161C53.1063 38.9248 53.5632 37.4924 53.5632 35.7189V23.6457C53.5632 22.5998 53.5815 21.8268 53.6181 21.3266C53.6912 20.7809 53.8739 20.167 54.1664 19.4849C54.6416 18.3026 56.0489 17.7115 58.3883 17.7115C60.6912 17.7115 62.0985 18.3253 62.6102 19.5531C62.8661 20.2352 63.0123 20.8491 63.0489 21.3948C63.122 21.895 63.1585 22.668 63.1585 23.7139V47.8603C63.1585 48.8607 63.122 49.6337 63.0489 50.1794C63.0123 50.6796 62.8478 51.248 62.5554 51.8847C62.0071 53.067 60.5998 53.6581 58.3335 53.6581C56.1037 53.6581 54.733 53.1124 54.2212 52.0211C53.8557 51.248 53.6729 50.3158 53.6729 49.2245C53.5267 49.5428 53.1977 49.9975 52.686 50.5887C52.1742 51.1798 51.6807 51.68 51.2056 52.0893C49.9627 53.0897 48.6103 53.5899 47.1481 53.5899ZM101.994 29.1664C96.0657 13.0478 84.292 13.993 79.1462 16.4805C75.6882 18.2714 74.0003 23.694 73.5887 26.1815C72.1067 32.7483 74.6178 41.8523 76.0587 45.5835C81.4927 56.9262 90.6729 56.777 94.5837 55.2845C104.464 49.9116 103.64 35.6337 101.994 29.1664Z" stroke="black" stroke-linecap="round"/>
</svg>
