<svg width="193" height="53" viewBox="0 0 193 53" fill="none" xmlns="http://www.w3.org/2000/svg">
<path d="M15.72 9.16C15.9333 8.76 16.2933 8.48 16.8 8.32C17.3067 8.16 17.9733 8.08 18.8 8.08C19.6533 8.08 20.3333 8.16 20.84 8.32C21.3467 8.48 21.6933 8.76 21.88 9.16C22.0933 9.56 22.2133 9.92 22.24 10.24C22.2933 10.5333 22.32 10.9867 22.32 11.6V35.48C22.32 36.0933 22.2933 36.56 22.24 36.88C22.2133 37.1733 22.0933 37.5067 21.88 37.88C21.48 38.6 20.3467 38.96 18.48 38.96C16.64 38.96 15.6133 38.3067 15.4 37C14.28 38.28 12.72 38.92 10.72 38.92C8.32 38.92 6.13333 37.88 4.16 35.8C2.18667 33.6933 1.2 31.2533 1.2 28.48C1.2 25.68 2.18667 23.2267 4.16 21.12C6.16 19.0133 8.34667 17.96 10.72 17.96C12.6933 17.96 14.2267 18.6267 15.32 19.96V11.56C15.32 10.9467 15.3333 10.4933 15.36 10.2C15.4133 9.88 15.5333 9.53333 15.72 9.16ZM9.24 30.88C9.93333 31.6 10.7733 31.96 11.76 31.96C12.7467 31.96 13.56 31.6 14.2 30.88C14.8667 30.16 15.2 29.3733 15.2 28.52C15.2 27.64 14.88 26.8267 14.24 26.08C13.6267 25.3333 12.7867 24.96 11.72 24.96C10.6533 24.96 9.8 25.3333 9.16 26.08C8.52 26.8 8.2 27.6 8.2 28.48C8.2 29.36 8.54667 30.16 9.24 30.88ZM34.8663 38.92C32.1729 38.92 29.9329 37.9067 28.1463 35.88C26.3863 33.8267 25.5063 31.3333 25.5063 28.4V21.4C25.5063 20.76 25.5196 20.2933 25.5463 20C25.5996 19.7067 25.7196 19.36 25.9063 18.96C26.2796 18.24 27.3196 17.88 29.0263 17.88C30.8929 17.88 31.9863 18.3867 32.3063 19.4C32.4663 19.8267 32.5463 20.5067 32.5463 21.44V28.44C32.5463 29.5333 32.8529 30.3867 33.4663 31C34.1063 31.6133 34.9463 31.92 35.9863 31.92C37.0529 31.92 37.9063 31.6 38.5463 30.96C39.2129 30.32 39.5463 29.48 39.5463 28.44V21.36C39.5463 20.7467 39.5596 20.2933 39.5863 20C39.6396 19.68 39.7729 19.32 39.9863 18.92C40.3329 18.2267 41.3596 17.88 43.0663 17.88C44.7463 17.88 45.7729 18.24 46.1463 18.96C46.3329 19.36 46.4396 19.72 46.4663 20.04C46.5196 20.3333 46.5463 20.7867 46.5463 21.4V35.56C46.5463 36.1467 46.5196 36.6 46.4663 36.92C46.4396 37.2133 46.3196 37.5467 46.1063 37.92C45.7063 38.6133 44.6796 38.96 43.0263 38.96C41.3996 38.96 40.3996 38.64 40.0263 38C39.7596 37.5467 39.6263 37 39.6263 36.36C39.5196 36.5467 39.2796 36.8133 38.9063 37.16C38.5329 37.5067 38.1729 37.8 37.8263 38.04C36.9196 38.6267 35.9329 38.92 34.8663 38.92ZM68.6841 10.92C68.9507 10.44 69.3374 10.12 69.8441 9.96C70.3507 9.8 70.9774 9.72 71.7241 9.72C72.4974 9.72 73.1107 9.78666 73.5641 9.92C74.0441 10.0533 74.3907 10.2133 74.6041 10.4C74.8441 10.5867 75.0174 10.8667 75.1241 11.24C75.2841 11.6667 75.3641 12.3467 75.3641 13.28V35.48C75.3641 36.12 75.3374 36.5867 75.2841 36.88C75.2574 37.1733 75.1374 37.52 74.9241 37.92C74.5507 38.64 73.5107 39 71.8041 39C70.7641 39 70.0441 38.92 69.6441 38.76C69.2441 38.6 68.9107 38.3467 68.6441 38C62.6441 30 58.6974 24.7733 56.8041 22.32V35.48C56.8041 36.12 56.7774 36.5867 56.7241 36.88C56.6974 37.1733 56.5774 37.52 56.3641 37.92C55.9907 38.64 54.9507 39 53.2441 39C51.5907 39 50.5774 38.64 50.2041 37.92C49.9907 37.52 49.8574 37.16 49.8041 36.84C49.7774 36.52 49.7641 36.0533 49.7641 35.44V13.12C49.7641 12.1067 49.8841 11.3733 50.1241 10.92C50.3907 10.44 50.7774 10.12 51.2841 9.96C51.7907 9.8 52.4441 9.72 53.2441 9.72C54.0441 9.72 54.6707 9.8 55.1241 9.96C55.6041 10.0933 55.9374 10.2533 56.1241 10.44C56.2307 10.52 56.5374 10.8667 57.0441 11.48C62.6707 19.1333 66.4307 24.1867 68.3241 26.64V13.12C68.3241 12.1067 68.4441 11.3733 68.6841 10.92ZM77.9531 28.48C77.9531 25.28 79.0731 22.64 81.3131 20.56C83.5531 18.48 86.1131 17.44 88.9931 17.44C91.8731 17.44 94.4198 18.48 96.6331 20.56C98.8465 22.6133 99.9531 25.24 99.9531 28.44C99.9531 30.6533 99.3798 32.6267 98.2331 34.36C97.0865 36.0667 95.6865 37.3333 94.0331 38.16C92.4065 38.96 90.7131 39.36 88.9531 39.36C87.1931 39.36 85.4865 38.9333 83.8331 38.08C82.1798 37.2 80.7798 35.92 79.6331 34.24C78.5131 32.5333 77.9531 30.6133 77.9531 28.48ZM86.3131 31.36C87.1665 32 88.0331 32.32 88.9131 32.32C89.7931 32.32 90.6731 31.9867 91.5531 31.32C92.4331 30.6533 92.8731 29.6667 92.8731 28.36C92.8731 27.0533 92.4598 26.08 91.6331 25.44C90.8065 24.8 89.9131 24.48 88.9531 24.48C87.9931 24.48 87.0998 24.8133 86.2731 25.48C85.4465 26.1467 85.0331 27.1333 85.0331 28.44C85.0331 29.72 85.4598 30.6933 86.3131 31.36ZM114.192 25L111.592 24.84V30.36C111.592 31.08 111.698 31.6 111.912 31.92C112.152 32.24 112.578 32.4 113.192 32.4C113.832 32.4 114.312 32.4267 114.632 32.48C114.978 32.5067 115.338 32.6267 115.712 32.84C116.325 33.1867 116.632 34.08 116.632 35.52C116.632 37.2 116.258 38.2267 115.512 38.6C115.112 38.7867 114.752 38.9067 114.432 38.96C114.138 38.9867 113.698 39 113.112 39C110.338 39 108.232 38.3733 106.792 37.12C105.352 35.8667 104.632 33.7467 104.632 30.76V24.84C104.125 24.92 103.578 24.96 102.992 24.96C102.405 24.96 101.912 24.7333 101.512 24.28C101.138 23.8267 100.952 23.0533 100.952 21.96C100.952 20.8667 101.018 20.08 101.152 19.6C101.285 19.0933 101.472 18.7333 101.712 18.52C102.138 18.1733 102.672 18 103.312 18L104.632 18.16V14.04C104.632 13.4267 104.645 12.9733 104.672 12.68C104.725 12.3867 104.858 12.0667 105.072 11.72C105.418 11.0533 106.445 10.72 108.152 10.72C109.965 10.72 111.045 11.2133 111.392 12.2C111.525 12.6267 111.592 13.3067 111.592 14.24V18.16C112.765 18.0533 113.645 18 114.232 18C114.845 18 115.298 18.0267 115.592 18.08C115.912 18.1067 116.272 18.2267 116.672 18.44C117.365 18.7867 117.712 19.8133 117.712 21.52C117.712 23.2 117.352 24.2267 116.632 24.6C116.232 24.7867 115.872 24.9067 115.552 24.96C115.258 24.9867 114.805 25 114.192 25ZM139.459 25.96C139.459 27.5867 139.046 28.8 138.219 29.6C137.419 30.3733 136.526 30.76 135.539 30.76H126.059C126.059 31.5067 126.499 32.1333 127.379 32.64C128.259 33.1467 129.139 33.4 130.019 33.4C131.566 33.4 132.779 33.24 133.659 32.92L134.099 32.76C134.739 32.4667 135.272 32.32 135.699 32.32C136.552 32.32 137.286 32.92 137.899 34.12C138.246 34.84 138.419 35.4533 138.419 35.96C138.419 38.3333 135.579 39.52 129.899 39.52C127.926 39.52 126.166 39.1867 124.619 38.52C123.099 37.8267 121.912 36.92 121.059 35.8C119.379 33.64 118.539 31.2267 118.539 28.56C118.539 25.2 119.619 22.52 121.779 20.52C123.966 18.4933 126.686 17.48 129.939 17.48C133.646 17.48 136.366 18.7867 138.099 21.4C139.006 22.7867 139.459 24.3067 139.459 25.96ZM131.019 27.12C132.032 27.12 132.539 26.6933 132.539 25.84C132.539 25.2267 132.299 24.7333 131.819 24.36C131.366 23.9867 130.699 23.8 129.819 23.8C128.966 23.8 128.112 24.16 127.259 24.88C126.406 25.5733 125.979 26.32 125.979 27.12H131.019ZM142.229 37.12C141.722 36.8 141.469 36.2933 141.469 35.6C141.469 34.9067 141.975 33.8533 142.989 32.44C143.282 31.9867 143.749 31.76 144.389 31.76C145.055 31.76 145.949 32.0933 147.069 32.76C148.189 33.4 149.202 33.72 150.109 33.72C151.735 33.72 152.549 33.4 152.549 32.76C152.549 32.2533 151.655 31.88 149.869 31.64C148.189 31.4 146.522 30.7733 144.869 29.76C144.095 29.28 143.455 28.5333 142.949 27.52C142.442 26.48 142.189 25.2533 142.189 23.84C142.189 19.6267 145.082 17.52 150.869 17.52C152.762 17.52 154.709 17.9733 156.709 18.88C157.642 19.3067 158.109 19.84 158.109 20.48C158.109 21.12 157.815 21.9067 157.229 22.84C156.642 23.7733 156.042 24.24 155.429 24.24C155.109 24.24 154.509 24.04 153.629 23.64C152.775 23.24 151.842 23.04 150.829 23.04C149.255 23.04 148.469 23.3333 148.469 23.92C148.469 24.72 149.375 25.24 151.189 25.48C152.949 25.6667 154.655 26.1733 156.309 27C157.082 27.3733 157.722 28.0267 158.229 28.96C158.762 29.8667 159.029 31.0133 159.029 32.4C159.029 33.7867 158.762 34.9733 158.229 35.96C157.722 36.92 157.002 37.64 156.069 38.12C154.362 38.9467 152.215 39.36 149.629 39.36C147.069 39.36 144.602 38.6133 142.229 37.12Z" fill="#653D8C"/>
<path fill-rule="evenodd" clip-rule="evenodd" d="M172.866 15.9424C177.033 14.2757 186.566 13.6424 191.366 24.4424C192.7 28.7757 193.366 38.3424 185.366 41.9424C182.2 42.9424 174.766 43.0424 170.366 35.4424C169.2 32.9424 167.166 26.8424 168.366 22.4424C168.7 20.7757 170.066 17.1424 172.866 15.9424ZM176.702 24.0107C180.232 23.8697 185.636 25.0632 183.525 31C180.701 30.8032 175.382 29.1299 176.702 24.0107Z" fill="#DE92A4"/>
<path d="M191.366 24.4424L191.844 24.2953L191.835 24.2667L191.823 24.2393L191.366 24.4424ZM172.866 15.9424L172.681 15.478L172.669 15.4828L172.866 15.9424ZM185.366 41.9424L185.517 42.4192L185.545 42.4104L185.572 42.3983L185.366 41.9424ZM170.366 35.4424L169.913 35.6538L169.923 35.6738L169.934 35.6929L170.366 35.4424ZM168.366 22.4424L168.849 22.5739L168.853 22.5573L168.857 22.5404L168.366 22.4424ZM176.702 24.0107L176.682 23.5111L176.31 23.526L176.218 23.8859L176.702 24.0107ZM183.525 31L183.49 31.4988L183.869 31.5252L183.996 31.1676L183.525 31ZM185.866 30.9424L185.924 31.4391L185.84 30.4431L185.866 30.9424ZM191.823 24.2393C189.365 18.708 185.666 16.0609 182.014 15.036C178.386 14.018 174.848 14.6112 172.681 15.4781L173.052 16.4066C175.051 15.6069 178.363 15.0501 181.744 15.9988C185.1 16.9405 188.568 19.3768 190.909 24.6455L191.823 24.2393ZM185.572 42.3983C189.755 40.5158 191.667 37.0637 192.357 33.5641C193.043 30.0819 192.529 26.5216 191.844 24.2953L190.888 24.5894C191.537 26.6965 192.023 30.0862 191.376 33.3707C190.732 36.6378 188.978 39.7689 185.161 41.4864L185.572 42.3983ZM169.934 35.6929C174.488 43.5598 182.206 43.4647 185.517 42.4192L185.216 41.4656C182.193 42.4201 175.045 42.525 170.799 35.1919L169.934 35.6929ZM167.884 22.3108C167.253 24.623 167.479 27.3396 167.99 29.7582C168.502 32.1856 169.315 34.3718 169.913 35.6538L170.819 35.2309C170.251 34.013 169.464 31.8991 168.968 29.5516C168.47 27.1952 168.279 24.6617 168.849 22.5739L167.884 22.3108ZM172.669 15.4828C171.131 16.1421 170.02 17.4523 169.259 18.7669C168.495 20.0855 168.052 21.4629 167.876 22.3443L168.857 22.5404C169.014 21.7552 169.421 20.4826 170.124 19.2679C170.83 18.0491 171.802 16.9427 173.063 16.402L172.669 15.4828ZM176.722 24.5103C178.45 24.4413 180.554 24.707 181.951 25.6417C182.634 26.0991 183.137 26.7083 183.365 27.5185C183.594 28.3356 183.558 29.4141 183.054 30.8324L183.996 31.1676C184.547 29.6175 184.628 28.3205 184.327 27.2485C184.025 26.1696 183.352 25.3761 182.507 24.8106C180.847 23.6997 178.484 23.4391 176.682 23.5111L176.722 24.5103ZM183.56 30.5012C182.201 30.4066 180.266 29.9548 178.85 28.9442C178.148 28.4439 177.591 27.8186 177.277 27.0467C176.966 26.2793 176.879 25.326 177.186 24.1356L176.218 23.8859C175.865 25.255 175.948 26.4306 176.351 27.4228C176.752 28.4106 177.452 29.1758 178.269 29.7583C179.888 30.9134 182.024 31.3967 183.49 31.4988L183.56 30.5012ZM183.358 31.576C184.142 31.5896 184.996 31.5462 185.924 31.4391L185.809 30.4457C184.92 30.5483 184.11 30.5889 183.375 30.5762L183.358 31.576ZM185.84 30.4431L183.34 30.5768L183.393 31.5754L185.893 31.4417L185.84 30.4431ZM175.89 21.2908C175.646 22.0584 175.462 22.9639 175.409 23.9149L176.408 23.9699C176.455 23.1093 176.622 22.287 176.843 21.594L175.89 21.2908ZM175.409 23.9149C175.316 25.6105 175.639 27.5071 176.856 29.0015C178.085 30.51 180.152 31.5206 183.358 31.576L183.375 30.5762C180.377 30.5244 178.626 29.5903 177.632 28.3699C176.626 27.1353 176.322 25.5187 176.408 23.9699L175.409 23.9149ZM183.819 31.2886C184.449 29.9468 184.86 27.8687 183.827 26.1477C182.775 24.3956 180.371 23.2398 175.886 23.4429L175.931 24.4419C180.28 24.2449 182.202 25.3837 182.969 26.6624C183.756 27.9721 183.479 29.6609 182.914 30.8636L183.819 31.2886ZM176.048 24.5557C176.261 24.5352 176.487 24.5197 176.722 24.5103L176.682 23.5111C176.429 23.5212 176.185 23.538 175.952 23.5602L176.048 24.5557Z" fill="black"/>
<path d="M176.365 21.3789C176.357 21.4549 176.298 21.5289 176.271 21.5998C176.264 21.6186 176.251 21.6196 176.251 21.6417" stroke="black" stroke-linecap="round"/>
<path d="M185.997 30.9231C185.934 30.9231 185.87 30.9365 185.809 30.9365" stroke="black" stroke-linecap="round"/>
</svg>
